<?xml version="1.0" encoding="iso-8859-1"?>
<!-- Uploaded to: SVG Repo, www.svgrepo.com, Generator: SVG Repo Mixer Tools -->
<svg height="800px" width="800px" version="1.1" id="Layer_1" xmlns="http://www.w3.org/2000/svg" xmlns:xlink="http://www.w3.org/1999/xlink" 
	 viewBox="0 0 512 512" xml:space="preserve">
<g>
	<ellipse style="fill:#FDF5EA;" cx="62.259" cy="254.684" rx="48.05" ry="41.519"/>
	<ellipse style="fill:#FDF5EA;" cx="159.128" cy="254.684" rx="48.05" ry="41.519"/>
	<ellipse style="fill:#FDF5EA;" cx="256.006" cy="254.684" rx="48.05" ry="41.519"/>
	<ellipse style="fill:#FDF5EA;" cx="352.869" cy="254.684" rx="48.05" ry="41.519"/>
	<ellipse style="fill:#FDF5EA;" cx="449.733" cy="254.684" rx="48.05" ry="41.519"/>
</g>
<path style="fill:#E5C9A5;" d="M449.74,296.202c-26.537,0-48.05-18.59-48.05-41.522c0-0.063,0.006-0.124,0.006-0.185h-0.783
	c0,0.061,0.006,0.122,0.006,0.185c0,22.932-21.513,41.522-48.05,41.522c-26.537,0-48.05-18.59-48.05-41.522
	c0-0.063,0.006-0.124,0.006-0.185h-0.782c0,0.061,0.006,0.122,0.006,0.185c0,22.932-21.513,41.522-48.05,41.522
	s-48.05-18.59-48.05-41.522c0-0.063,0.004-0.124,0.006-0.185h-0.782c0,0.061,0.006,0.122,0.006,0.185
	c0,22.932-21.513,41.522-48.05,41.522s-48.05-18.59-48.05-41.522c0-0.063,0.006-0.124,0.006-0.185h-0.783
	c0,0.061,0.006,0.122,0.006,0.185c0,22.932-21.513,41.522-48.05,41.522c-5.444,0-10.67-0.794-15.549-2.235l29.286,111.279h360.008
	l29.286-111.279C460.411,295.409,455.183,296.202,449.74,296.202z"/>
<path style="fill:#FE79A5;" d="M259.636,106.753c-106.742,0-194.78,93.311-207.389,107.313c3.23-0.593,6.577-0.909,10.012-0.909
	c26.464,0,47.929,18.49,48.044,41.337h0.783c0,0.061-0.006,0.122-0.006,0.185c0-22.932,21.513-41.522,48.05-41.522
	s48.05,18.59,48.05,41.522c0-0.063-0.006-0.124-0.006-0.185h0.782c0,0.061-0.006,0.122-0.006,0.185
	c0-22.932,21.513-41.522,48.05-41.522s48.05,18.59,48.05,41.522c0-0.063-0.004-0.124-0.006-0.185h0.781
	c0,0.061-0.006,0.122-0.006,0.185c0-22.932,21.513-41.522,48.05-41.522c26.537,0,48.05,18.59,48.05,41.522
	c0-0.063-0.006-0.124-0.006-0.185h0.783c0.117-22.847,21.579-41.337,48.044-41.337c6.523,0,12.741,1.128,18.414,3.164
	c0.276-0.314,0.432-0.496,0.432-0.496S375.035,106.753,259.636,106.753z"/>
<path d="M512,254.68c0-21.608-13.817-40.368-33.948-49.611c-12.432-14-103.998-112.523-218.415-112.523
	c-105.848,0-192.067,84.198-214.872,108.659C18.928,207.989,0,229.386,0,254.68c0,21.926,14.223,40.928,34.841,50.02l27.414,104.161
	c1.643,6.243,7.286,10.593,13.742,10.593h360.006c6.455,0,12.099-4.351,13.742-10.593L477.158,304.7
	C497.775,295.608,512,276.606,512,254.68z M433.512,200.877c-0.178,0.043-0.354,0.094-0.531,0.139
	c-2.163,0.543-4.278,1.185-6.339,1.925c-0.077,0.028-0.155,0.054-0.232,0.082c-0.709,0.257-1.41,0.527-2.104,0.807
	c-0.063,0.026-0.124,0.051-0.186,0.075c-8.919,3.62-16.721,9.063-22.807,15.805c-11.423-12.656-28.893-20.761-48.443-20.761
	c-19.543,0-37.012,8.103-48.435,20.751c-11.423-12.648-28.893-20.751-48.436-20.751s-37.012,8.103-48.435,20.751
	c-11.423-12.648-28.891-20.751-48.435-20.751c-19.549,0-37.019,8.105-48.442,20.76c-6.077-6.729-13.865-12.166-22.767-15.786
	c-0.034-0.014-0.068-0.028-0.102-0.041c-1.256-0.509-2.531-0.989-3.829-1.424c33.154-30.42,100.075-81.495,175.647-81.495
	C333.755,120.964,399.577,170.113,433.512,200.877z M319.033,254.312c0.244-14.891,15.329-26.945,33.836-26.945
	c18.49,0,33.565,12.031,33.836,26.904c-0.001,0.075-0.001,0.149-0.001,0.225c0,0.125,0.001,0.25,0.004,0.375
	c-0.126,14.974-15.258,27.122-33.839,27.122c-18.603,0-33.747-12.177-33.839-27.175c0.003-0.115,0.004-0.233,0.004-0.323
	C319.034,254.434,319.034,254.373,319.033,254.312z M222.162,254.271c0.273-14.873,15.347-26.904,33.836-26.904
	s33.565,12.031,33.836,26.904c-0.001,0.075-0.001,0.149-0.001,0.225c0,0.126,0.001,0.251,0.004,0.378
	c-0.129,14.972-15.259,27.12-33.839,27.12c-18.586,0-33.72-12.156-33.839-27.134c0.001-0.074,0.003-0.145,0.004-0.203
	C222.165,254.528,222.165,254.4,222.162,254.271z M125.292,254.271c0.273-14.873,15.347-26.904,33.836-26.904
	s33.565,12.031,33.836,26.904c-0.001,0.129-0.003,0.257-0.001,0.385c0,0.071,0.001,0.141,0.004,0.21
	c-0.125,14.974-15.258,27.125-33.839,27.125c-18.586,0-33.72-12.156-33.839-27.134c0.001-0.074,0.003-0.145,0.004-0.203
	C125.295,254.528,125.295,254.4,125.292,254.271z M54.779,228.046c0.009-0.001,0.017-0.001,0.026-0.003
	c1.837-0.335,3.707-0.548,5.58-0.634l0,0c0.625-0.028,1.25-0.043,1.874-0.043c18.581,0,33.759,12.201,33.835,27.201
	c0,0.016,0.001,0.031,0.003,0.047c0,0.014-0.001,0.028-0.001,0.041c0,0.037,0.001,0.072,0.001,0.109
	c-0.001,0.244-0.014,0.487-0.023,0.73c-0.009,0.226-0.011,0.452-0.027,0.675c-0.016,0.237-0.044,0.472-0.067,0.708
	c-0.023,0.226-0.04,0.452-0.07,0.676c-0.03,0.232-0.072,0.462-0.109,0.691c-0.037,0.223-0.068,0.448-0.111,0.669
	c-0.044,0.227-0.099,0.45-0.149,0.676c-0.05,0.222-0.097,0.445-0.153,0.665c-0.057,0.222-0.125,0.442-0.189,0.661
	c-0.064,0.217-0.122,0.438-0.192,0.654c-0.071,0.219-0.152,0.435-0.23,0.651c-0.077,0.213-0.148,0.429-0.23,0.641
	c-0.084,0.213-0.178,0.423-0.267,0.635c-0.09,0.209-0.173,0.421-0.269,0.628c-0.097,0.209-0.202,0.415-0.304,0.621
	c-0.101,0.206-0.198,0.412-0.305,0.615c-0.107,0.202-0.223,0.399-0.335,0.598c-0.115,0.203-0.224,0.408-0.345,0.608
	c-0.118,0.196-0.244,0.386-0.368,0.578c-0.126,0.199-0.249,0.399-0.382,0.594c-0.129,0.192-0.269,0.378-0.404,0.566
	c-0.138,0.192-0.271,0.385-0.413,0.574c-0.139,0.185-0.288,0.364-0.433,0.544c-0.149,0.188-0.294,0.377-0.449,0.561
	c-0.148,0.175-0.303,0.344-0.455,0.516c-0.163,0.185-0.323,0.371-0.49,0.553c-0.158,0.169-0.323,0.331-0.485,0.497
	c-0.173,0.178-0.342,0.357-0.52,0.53c-0.166,0.162-0.341,0.318-0.512,0.476c-0.185,0.172-0.365,0.345-0.554,0.513
	c-0.172,0.152-0.352,0.298-0.53,0.448c-0.196,0.166-0.389,0.335-0.591,0.497c-0.182,0.146-0.371,0.287-0.557,0.429
	c-0.206,0.158-0.408,0.32-0.618,0.473c-0.189,0.139-0.386,0.27-0.58,0.405c-0.216,0.151-0.428,0.304-0.648,0.45
	c-0.2,0.134-0.408,0.259-0.611,0.388c-0.222,0.141-0.44,0.284-0.666,0.421c-0.209,0.126-0.426,0.244-0.639,0.367
	c-0.229,0.131-0.453,0.266-0.686,0.392c-0.22,0.119-0.448,0.232-0.672,0.348c-0.233,0.121-0.462,0.244-0.699,0.359
	c-0.229,0.112-0.466,0.216-0.698,0.325c-0.239,0.111-0.475,0.226-0.718,0.331c-0.233,0.102-0.47,0.195-0.706,0.293
	c-0.25,0.104-0.497,0.21-0.75,0.31c-0.243,0.094-0.493,0.18-0.74,0.27c-0.251,0.091-0.5,0.188-0.755,0.274
	c-0.25,0.085-0.507,0.162-0.76,0.242c-0.259,0.082-0.513,0.169-0.774,0.246c-0.263,0.078-0.531,0.146-0.797,0.219
	c-0.256,0.07-0.51,0.145-0.769,0.209c-0.276,0.07-0.557,0.128-0.837,0.192c-0.256,0.058-0.509,0.121-0.767,0.176
	c-0.277,0.058-0.56,0.104-0.84,0.156c-0.264,0.048-0.526,0.102-0.793,0.148c-0.283,0.047-0.57,0.082-0.855,0.124
	c-0.269,0.038-0.536,0.082-0.807,0.117c-0.294,0.036-0.593,0.061-0.888,0.091c-0.266,0.027-0.53,0.06-0.799,0.082
	c-0.413,0.034-0.833,0.055-1.25,0.077c-0.153,0.009-0.305,0.023-0.46,0.028c-0.575,0.024-1.154,0.036-1.736,0.036
	c-0.915,0-1.824-0.037-2.732-0.097c-0.108-0.007-0.216-0.011-0.324-0.02c-0.926-0.068-1.849-0.165-2.764-0.296
	c-0.017-0.001-0.034-0.004-0.051-0.007c-1.917-0.276-3.805-0.688-5.654-1.233c-0.084-0.024-0.168-0.033-0.251-0.057
	c-12.869-3.868-22.062-13.884-22.062-25.602C28.418,241.694,39.707,230.803,54.779,228.046z M425.049,391.036h-338.1l-6.609-25.112
	h215.478c7.846,0,14.209-6.363,14.209-14.209s-6.363-14.209-14.209-14.209H72.862l-7.153-27.181
	c0.331-0.016,0.656-0.051,0.985-0.072c0.725-0.047,1.451-0.091,2.168-0.159c0.431-0.041,0.857-0.098,1.285-0.148
	c0.648-0.074,1.294-0.146,1.937-0.237c0.453-0.064,0.902-0.143,1.353-0.216c0.608-0.099,1.215-0.199,1.817-0.313
	c0.459-0.088,0.915-0.188,1.37-0.284c0.584-0.124,1.167-0.25,1.743-0.388c0.458-0.109,0.911-0.229,1.365-0.348
	c0.566-0.148,1.128-0.3,1.687-0.462c0.453-0.132,0.902-0.27,1.351-0.411c0.548-0.172,1.094-0.35,1.637-0.534
	c0.443-0.152,0.885-0.307,1.323-0.467c0.537-0.196,1.069-0.401,1.599-0.61c0.431-0.171,0.858-0.342,1.285-0.52
	c0.527-0.222,1.047-0.452,1.566-0.685c0.415-0.188,0.828-0.374,1.238-0.568c0.52-0.247,1.032-0.506,1.543-0.767
	c0.394-0.2,0.789-0.398,1.177-0.607c0.519-0.277,1.026-0.568,1.535-0.858c0.367-0.209,0.736-0.415,1.097-0.631
	c0.527-0.315,1.043-0.647,1.559-0.975c0.327-0.209,0.661-0.412,0.983-0.627c0.571-0.381,1.128-0.777,1.685-1.175
	c0.252-0.179,0.512-0.351,0.76-0.534c0.8-0.59,1.586-1.195,2.353-1.819c0.011-0.01,0.023-0.02,0.036-0.03
	c0.752-0.614,1.486-1.243,2.204-1.888c0.239-0.215,0.466-0.44,0.702-0.659c0.482-0.446,0.963-0.894,1.428-1.356
	c0.274-0.271,0.536-0.554,0.804-0.831c0.408-0.422,0.818-0.843,1.212-1.275c0.065-0.072,0.136-0.141,0.203-0.213
	c11.423,12.648,28.891,20.751,48.435,20.751s37.012-8.103,48.435-20.751c11.423,12.648,28.891,20.751,48.435,20.751
	s37.013-8.103,48.436-20.751c11.423,12.648,28.891,20.751,48.435,20.751c19.543,0,37.012-8.102,48.435-20.751
	c0.07,0.078,0.146,0.149,0.216,0.227c0.369,0.405,0.755,0.8,1.137,1.195c0.293,0.304,0.58,0.612,0.88,0.909
	c0.429,0.426,0.875,0.837,1.319,1.25c0.271,0.253,0.533,0.512,0.81,0.76c0.638,0.573,1.293,1.13,1.958,1.677
	c0.111,0.091,0.217,0.186,0.328,0.276c0.746,0.607,1.509,1.195,2.288,1.769c0.273,0.2,0.557,0.389,0.834,0.587
	c0.533,0.379,1.066,0.76,1.613,1.124c0.335,0.223,0.682,0.435,1.022,0.651c0.503,0.321,1.006,0.644,1.519,0.951
	c0.368,0.22,0.746,0.429,1.12,0.644c0.502,0.287,1.003,0.574,1.515,0.848c0.391,0.209,0.79,0.409,1.186,0.611
	c0.509,0.259,1.017,0.517,1.536,0.763c0.409,0.195,0.824,0.382,1.238,0.568c0.519,0.234,1.04,0.466,1.567,0.686
	c0.423,0.178,0.851,0.35,1.28,0.519c0.531,0.21,1.066,0.415,1.604,0.612c0.436,0.159,0.874,0.314,1.316,0.466
	c0.546,0.186,1.094,0.365,1.647,0.537c0.445,0.139,0.891,0.277,1.34,0.408c0.563,0.163,1.13,0.317,1.699,0.466
	c0.449,0.118,0.898,0.236,1.351,0.344c0.583,0.141,1.171,0.267,1.761,0.392c0.45,0.095,0.899,0.193,1.354,0.281
	c0.608,0.117,1.222,0.216,1.836,0.315c0.445,0.072,0.887,0.149,1.334,0.215c0.648,0.092,1.303,0.165,1.957,0.239
	c0.422,0.048,0.841,0.105,1.266,0.145c0.725,0.068,1.458,0.115,2.19,0.161c0.324,0.02,0.644,0.055,0.968,0.071L425.049,391.036z
	 M461.516,280.283c-0.082,0.023-0.166,0.031-0.249,0.057c-1.849,0.546-3.737,0.956-5.652,1.232
	c-0.018,0.003-0.037,0.006-0.055,0.009c-0.915,0.131-1.836,0.227-2.762,0.296c-0.108,0.007-0.217,0.013-0.325,0.02
	c-0.907,0.06-1.817,0.097-2.732,0.097c-0.583,0-1.162-0.011-1.738-0.036c-0.095-0.004-0.189-0.013-0.283-0.017
	c-0.479-0.023-0.956-0.05-1.429-0.088c-0.196-0.016-0.389-0.041-0.584-0.06c-0.369-0.036-0.739-0.068-1.103-0.114
	c-0.226-0.028-0.448-0.065-0.671-0.097c-0.331-0.047-0.664-0.09-0.992-0.143c-0.219-0.036-0.433-0.081-0.649-0.121
	c-0.328-0.06-0.659-0.117-0.985-0.183c-0.207-0.043-0.409-0.094-0.615-0.141c-0.33-0.074-0.662-0.145-0.988-0.227
	c-0.198-0.05-0.392-0.108-0.588-0.161c-0.328-0.088-0.658-0.173-0.982-0.269c-0.19-0.057-0.377-0.121-0.566-0.179
	c-0.324-0.101-0.649-0.2-0.969-0.308c-0.183-0.063-0.362-0.134-0.544-0.199c-0.318-0.114-0.638-0.226-0.952-0.348
	c-0.178-0.07-0.35-0.146-0.526-0.217c-0.313-0.126-0.627-0.251-0.932-0.385c-0.158-0.07-0.31-0.145-0.466-0.215
	c-0.32-0.146-0.641-0.29-0.953-0.443c-0.141-0.068-0.274-0.143-0.413-0.213c-0.321-0.163-0.644-0.325-0.958-0.496
	c-0.138-0.075-0.271-0.156-0.409-0.233c-0.308-0.173-0.618-0.347-0.918-0.529c-0.129-0.078-0.254-0.162-0.382-0.242
	c-0.301-0.186-0.602-0.374-0.897-0.568c-0.121-0.081-0.236-0.166-0.355-0.247c-0.294-0.202-0.588-0.402-0.874-0.611
	c-0.108-0.08-0.212-0.163-0.318-0.244c-0.288-0.217-0.578-0.435-0.858-0.659c-0.102-0.082-0.199-0.169-0.3-0.251
	c-0.277-0.23-0.554-0.459-0.821-0.695c-0.095-0.085-0.186-0.173-0.28-0.26c-0.266-0.24-0.53-0.483-0.786-0.732
	c-0.085-0.084-0.166-0.171-0.25-0.256c-0.256-0.256-0.512-0.513-0.756-0.776c-0.075-0.082-0.146-0.168-0.222-0.249
	c-0.246-0.27-0.49-0.543-0.723-0.82c-0.071-0.085-0.138-0.173-0.207-0.259c-0.229-0.28-0.458-0.561-0.673-0.848
	c-0.067-0.088-0.128-0.179-0.193-0.269c-0.213-0.288-0.423-0.578-0.622-0.874c-0.061-0.091-0.117-0.183-0.176-0.276
	c-0.196-0.297-0.389-0.595-0.573-0.899c-0.057-0.094-0.107-0.19-0.162-0.286c-0.178-0.305-0.354-0.612-0.519-0.922
	c-0.05-0.095-0.095-0.195-0.144-0.29c-0.159-0.314-0.318-0.628-0.463-0.948c-0.045-0.101-0.085-0.203-0.131-0.304
	c-0.141-0.318-0.279-0.638-0.404-0.961c-0.04-0.104-0.074-0.21-0.112-0.314c-0.121-0.325-0.24-0.651-0.345-0.979
	c-0.034-0.108-0.063-0.216-0.095-0.324c-0.101-0.328-0.199-0.658-0.284-0.992c-0.03-0.115-0.051-0.232-0.08-0.348
	c-0.08-0.33-0.156-0.659-0.22-0.993c-0.023-0.118-0.038-0.239-0.06-0.358c-0.058-0.332-0.115-0.666-0.159-1.005
	c-0.016-0.122-0.024-0.247-0.038-0.371c-0.037-0.335-0.074-0.672-0.095-1.012c-0.009-0.126-0.009-0.253-0.014-0.379
	c-0.017-0.347-0.033-0.693-0.033-1.043c0-0.034,0.001-0.07,0.001-0.102c0-0.001,0-0.004,0-0.006c0-0.01,0.001-0.02,0.001-0.03
	c0.077-14.998,15.255-27.201,33.836-27.201c4.727,0,9.308,0.784,13.614,2.329c0.097,0.034,0.193,0.06,0.29,0.091
	c11.742,4.291,19.937,13.83,19.937,24.893C483.582,266.4,474.387,276.414,461.516,280.283z"/>
<path d="M338.44,365.92c-0.922,0-1.861-0.098-2.771-0.283c-0.909-0.171-1.805-0.455-2.656-0.797
	c-0.867-0.355-1.691-0.796-2.458-1.307c-0.781-0.526-1.506-1.122-2.16-1.776c-0.654-0.654-1.252-1.378-1.762-2.16
	c-0.512-0.767-0.952-1.591-1.307-2.445c-0.355-0.865-0.625-1.76-0.81-2.657c-0.185-0.922-0.284-1.861-0.284-2.785
	c0-0.922,0.099-1.861,0.284-2.769c0.185-0.911,0.455-1.806,0.81-2.657c0.355-0.867,0.796-1.691,1.307-2.458
	c0.51-0.781,1.108-1.506,1.762-2.16s1.378-1.25,2.16-1.762c0.767-0.512,1.591-0.952,2.458-1.307c0.853-0.355,1.746-0.625,2.656-0.81
	c1.833-0.369,3.723-0.369,5.556,0c0.895,0.185,1.792,0.455,2.657,0.81c0.854,0.355,1.678,0.796,2.444,1.307
	c0.783,0.512,1.508,1.108,2.161,1.762c0.668,0.654,1.25,1.378,1.776,2.16c0.512,0.767,0.952,1.591,1.307,2.458
	c0.355,0.853,0.625,1.746,0.81,2.657c0.185,0.909,0.269,1.847,0.269,2.769c0,0.924-0.085,1.863-0.269,2.785
	c-0.185,0.897-0.455,1.792-0.81,2.657c-0.355,0.854-0.796,1.678-1.307,2.445c-0.526,0.782-1.108,1.506-1.776,2.16
	c-0.654,0.654-1.378,1.25-2.161,1.776c-0.766,0.512-1.59,0.952-2.444,1.307c-0.865,0.341-1.762,0.625-2.657,0.797
	C340.303,365.822,339.378,365.92,338.44,365.92z"/>
</svg>