<?xml version="1.0" ?>
<!-- Uploaded to: SVG Repo, www.svgrepo.com, Generator: SVG Repo Mixer Tools -->
<svg width="800px" height="800px" viewBox="0 0 64 64" xmlns="http://www.w3.org/2000/svg">
<defs>
<style>.cls-1{fill:#f7ba6f;}.cls-2{fill:#f8c88c;}.cls-3{fill:#8cc63f;}.cls-4{fill:#a3d165;}.cls-5{fill:red;}.cls-6{fill:#f55;}.cls-7{fill:#fccb7e;}</style>
</defs>
<title/>
<g data-name="Layer 25" id="Layer_25">
<path class="cls-1" d="M14,0A6.006,6.006,0,0,0,8,6V58a6,6,0,0,0,12,0V6A6.006,6.006,0,0,0,14,0Z"/>
<path class="cls-1" d="M50,0a6.006,6.006,0,0,0-6,6V58a6,6,0,0,0,12,0V6A6.006,6.006,0,0,0,50,0Z"/>
<path class="cls-2" d="M50,0a6,6,0,0,0-1,.09A6.006,6.006,0,0,1,54,6V58a6.006,6.006,0,0,1-5,5.91A5.967,5.967,0,0,0,56,58V6A6.006,6.006,0,0,0,50,0Z"/>
<path class="cls-3" d="M48,14.562A5.622,5.622,0,0,0,45.819,10.2,5.622,5.622,0,0,0,48,5.844C48,2.622,45.1,0,41.546,0,40.671,0,34,1.687,34,3.906V60.094C34,62.313,40.671,64,41.546,64,45.1,64,48,61.378,48,58.156A5.622,5.622,0,0,0,45.819,53.8a5.448,5.448,0,0,0,0-8.719,5.448,5.448,0,0,0,0-8.719,5.447,5.447,0,0,0,0-8.718,5.448,5.448,0,0,0,0-8.719A5.623,5.623,0,0,0,48,14.562Z"/>
<path class="cls-4" d="M48,14.562A5.622,5.622,0,0,0,45.819,10.2,5.622,5.622,0,0,0,48,5.844C48,2.622,45.1,0,41.546,0A4.8,4.8,0,0,0,40.8.113,6.035,6.035,0,0,1,46,5.844,5.622,5.622,0,0,1,43.819,10.2,5.622,5.622,0,0,1,46,14.562a5.623,5.623,0,0,1-2.181,4.36,5.448,5.448,0,0,1,0,8.719,5.447,5.447,0,0,1,0,8.718,5.448,5.448,0,0,1,0,8.719,5.448,5.448,0,0,1,0,8.719A5.622,5.622,0,0,1,46,58.156a6.035,6.035,0,0,1-5.2,5.731,4.8,4.8,0,0,0,.747.113C45.1,64,48,61.378,48,58.156A5.622,5.622,0,0,0,45.819,53.8a5.448,5.448,0,0,0,0-8.719,5.448,5.448,0,0,0,0-8.719,5.447,5.447,0,0,0,0-8.718,5.448,5.448,0,0,0,0-8.719A5.623,5.623,0,0,0,48,14.562Z"/>
<path class="cls-3" d="M22.455,0C18.9,0,16,2.622,16,5.844A5.624,5.624,0,0,0,18.18,10.2,5.624,5.624,0,0,0,16,14.562a5.625,5.625,0,0,0,2.18,4.36,5.449,5.449,0,0,0,0,8.719,5.448,5.448,0,0,0,0,8.718,5.449,5.449,0,0,0,0,8.719,5.449,5.449,0,0,0,0,8.719A5.624,5.624,0,0,0,16,58.156C16,61.378,18.9,64,22.455,64,23.33,64,30,62.313,30,60.094V3.906C30,1.687,23.33,0,22.455,0Z"/>
<path class="cls-5" d="M32,0a6.006,6.006,0,0,0-6,6V58a6,6,0,0,0,12,0V6A6.006,6.006,0,0,0,32,0Z"/>
<path class="cls-6" d="M32,0a6,6,0,0,0-1,.09A6.006,6.006,0,0,1,36,6V58a6.006,6.006,0,0,1-5,5.91A5.967,5.967,0,0,0,38,58V6A6.006,6.006,0,0,0,32,0Z"/>
<path class="cls-7" d="M34,59a1,1,0,0,1-.707-.293l-2.586-2.586a3,3,0,0,1,0-4.242l1.172-1.172a1,1,0,0,0,0-1.414l-1.172-1.172a3,3,0,0,1,0-4.242l1.172-1.172a1,1,0,0,0,0-1.414l-1.172-1.172a3,3,0,0,1,0-4.242l1.172-1.172a1,1,0,0,0,0-1.414l-1.172-1.172a3,3,0,0,1,0-4.242l1.172-1.172a1,1,0,0,0,0-1.414l-1.172-1.172a3,3,0,0,1,0-4.242l1.172-1.172a1,1,0,0,0,0-1.414l-1.172-1.172a3,3,0,0,1,0-4.242l1.172-1.172a1,1,0,0,0,0-1.414L29.293,6.707a1,1,0,0,1,1.414-1.414l2.586,2.586a3,3,0,0,1,0,4.243l-1.172,1.171a1,1,0,0,0,0,1.414l1.172,1.172a3,3,0,0,1,0,4.243l-1.172,1.171a1,1,0,0,0,0,1.414l1.172,1.172a3,3,0,0,1,0,4.243l-1.172,1.171a1,1,0,0,0,0,1.414l1.172,1.172a3,3,0,0,1,0,4.243l-1.172,1.171a1,1,0,0,0,0,1.414l1.172,1.172a3,3,0,0,1,0,4.243l-1.172,1.171a1,1,0,0,0,0,1.414l1.172,1.172a3,3,0,0,1,0,4.243l-1.172,1.171a1,1,0,0,0,0,1.414l2.586,2.586A1,1,0,0,1,34,59Z"/>
</g>
</svg>